<svg width="17" height="19" viewBox="0 0 17 19" fill="none" xmlns="http://www.w3.org/2000/svg">
<path d="M14.9108 17.1242L14.9107 17.1242L14.8676 17.164C14.8673 17.1643 14.867 17.1646 14.8667 17.1649C14.1374 17.8718 13.144 18.3079 12.05 18.3079C10.9319 18.3079 9.91905 17.8541 9.18679 17.1215C8.45416 16.3892 8.00034 15.376 8.00034 14.2579C8.00034 13.1398 8.45416 12.1269 9.18676 11.3947C9.18677 11.3947 9.18678 11.3947 9.18679 11.3946M14.9108 17.1242L14.8401 11.4654C14.1252 10.7507 13.1388 10.3082 12.05 10.3082C10.9595 10.3082 9.97177 10.7507 9.25748 11.4654L9.18679 11.3946M14.9108 17.1242L14.9136 17.1215C15.6462 16.3892 16.1 15.376 16.1 14.2579C16.1 13.1402 15.6462 12.1269 14.9108 11.3946L14.9108 17.1242ZM9.18679 11.3946C9.91905 10.662 10.9319 10.2082 12.05 10.2082C13.1664 10.2082 14.1778 10.662 14.9107 11.3945L9.18679 11.3946ZM10.8816 13.6129L10.8811 13.6123C10.839 13.5719 10.8202 13.5694 10.8168 13.5693H10.8167C10.8157 13.5693 10.7995 13.5688 10.7614 13.6083L10.7614 13.6083L10.1515 14.2399L10.1508 14.2407C10.1211 14.2707 10.1166 14.2891 10.1161 14.2961C10.1158 14.3007 10.116 14.3139 10.1377 14.3382L11.3889 15.5819L11.3889 15.5819C11.4084 15.6014 11.4264 15.6193 11.443 15.636C11.5027 15.6958 11.5451 15.7383 11.58 15.768C11.6116 15.7949 11.6261 15.8012 11.6302 15.8026C11.634 15.8011 11.6498 15.7939 11.6874 15.7596C11.714 15.7353 11.7432 15.7058 11.78 15.6686C11.8079 15.6405 11.8401 15.608 11.8789 15.5698L13.8888 13.5947L13.8889 13.5946C13.9687 13.5164 13.984 13.4766 13.9843 13.4537C13.9847 13.4317 13.9715 13.3901 13.8881 13.3075L13.887 13.3063L13.887 13.3063L13.3616 12.7683L10.8816 13.6129ZM10.8816 13.6129L11.581 14.2741L11.6522 14.3414M10.8816 13.6129L11.6522 14.3414M11.6522 14.3414L11.7209 14.2716M11.6522 14.3414L11.7209 14.2716M11.7209 14.2716L13.1284 12.8423L13.0571 12.7722M11.7209 14.2716L13.0571 12.7722M13.0571 12.7722L13.1284 12.8423C13.1378 12.8328 13.1465 12.8238 13.1547 12.8154M13.0571 12.7722L13.1547 12.8154M13.1547 12.8154C13.1775 12.792 13.1966 12.7724 13.2157 12.755M13.1547 12.8154L13.2157 12.755M13.2157 12.755C13.2415 12.7315 13.2584 12.7206 13.27 12.7161M13.2157 12.755L13.27 12.7161M13.27 12.7161C13.2778 12.713 13.2828 12.7126 13.2914 12.7156M13.27 12.7161L13.2914 12.7156M13.2914 12.7156C13.3037 12.7199 13.3265 12.7326 13.3615 12.7682L13.2914 12.7156ZM9.79049 4.86963L9.79043 4.86958C9.54708 4.66186 9.40184 4.34534 9.36905 3.92647V2.34295L12.0349 5.22649L10.9743 5.22761C10.4364 5.21786 10.0455 5.08762 9.79049 4.86963ZM10.9651 6.2844V6.28441L10.9666 6.28441L12.2714 6.28568V9.22149V9.31543L12.3652 9.32129C12.6533 9.3393 12.9346 9.38197 13.2072 9.44762L13.3306 9.47735L13.3306 9.35038L13.3296 5.27829C13.3296 5.27828 13.3296 5.27827 13.3296 5.27827C13.3296 5.1501 13.2834 5.02155 13.1895 4.9197L13.1894 4.9196L9.47177 0.89778C9.37495 0.772854 9.22327 0.692236 9.05272 0.692236H3.13844C2.52345 0.692236 1.96372 0.94459 1.55687 1.35109L1.55681 1.35115C1.1523 1.75601 0.9 2.31576 0.9 2.93067V14.3759C0.9 14.9915 1.15229 15.5516 1.55715 15.9568L1.55721 15.9569C1.96244 16.3617 2.52288 16.614 3.13844 16.614H7.53741H7.69976L7.62672 16.469C7.49174 16.2011 7.38074 15.9191 7.29607 15.626L7.27519 15.5538H7.2H3.13844C2.81601 15.5538 2.52065 15.4208 2.30711 15.2072C2.09318 14.9933 1.9602 14.6983 1.9602 14.3759V2.93067C1.9602 2.60673 2.09266 2.31175 2.30608 2.09832C2.51951 1.88489 2.81449 1.75244 3.13844 1.75244H8.30884V3.93237H8.30864L8.30904 3.93868L8.31278 3.99786L8.31278 3.99787L8.31287 3.99913C8.36589 4.69713 8.62882 5.2692 9.10237 5.67403L9.1024 5.67405C9.55605 6.06158 10.1833 6.27223 10.9651 6.2844ZM9.76901 9.86799L9.88408 9.808L9.79676 9.71202C9.69974 9.60538 9.55967 9.53815 9.40408 9.53815H4.55646C4.26382 9.53815 4.02653 9.77544 4.02653 10.0681C4.02653 10.361 4.26377 10.5984 4.55646 10.5984H8.68401H8.72225L8.75073 10.5728C9.05944 10.2964 9.40152 10.0596 9.76901 9.86799ZM7.57878 12.1402L7.64658 11.9973H7.48843H4.55646C4.26382 11.9973 4.02653 12.2346 4.02653 12.5273C4.02653 12.8202 4.26377 13.0575 4.55646 13.0575H7.17245H7.24929L7.26908 12.9833C7.34707 12.6907 7.45141 12.4086 7.57878 12.1402ZM4.02653 7.60924C4.02653 7.90189 4.26382 8.13917 4.55646 8.13917H9.67517C9.96771 8.13917 10.2054 7.90199 10.2054 7.60924C10.2054 7.31621 9.96776 7.07897 9.67517 7.07897H4.55646C4.26377 7.07897 4.02653 7.31631 4.02653 7.60924Z" fill="#4A4A4A" stroke="#4A4A4A" stroke-width="0.2"/>
</svg>
