<svg width="14" height="13" viewBox="0 0 14 13" fill="none" xmlns="http://www.w3.org/2000/svg">
<path fill-rule="evenodd" clip-rule="evenodd" d="M12.4 0.550049H1.37778C0.62 0.550049 0 1.17005 0 1.92783V11.5723C0 12.33 0.62 12.95 1.37778 12.95H12.4C13.1578 12.95 13.7778 12.33 13.7778 11.5723V1.92783C13.7778 1.17005 13.1578 0.550049 12.4 0.550049ZM12.4 11.5723H1.37778V1.92783H12.4V11.5723Z" fill="#4A4A4A"/>
<path fill-rule="evenodd" clip-rule="evenodd" d="M11.9936 5.66169L11.0154 4.68347L8.83158 6.86725L7.86025 5.88903L6.88892 6.86036L8.83158 8.8168L11.9936 5.66169Z" fill="#4A4A4A"/>
<path d="M5.5111 3.30554H2.06665V4.68332H5.5111V3.30554Z" fill="#4A4A4A"/>
<path d="M5.5111 6.06116H2.06665V7.43893H5.5111V6.06116Z" fill="#4A4A4A"/>
<path d="M5.5111 8.81665H2.06665V10.1944H5.5111V8.81665Z" fill="#4A4A4A"/>
</svg>
