<svg width="17" height="19" viewBox="0 0 17 19" fill="none" xmlns="http://www.w3.org/2000/svg">
<mask id="path-1-outside-1_5979_2324" maskUnits="userSpaceOnUse" x="0" y="-0.232544" width="17" height="19" fill="black">
<rect fill="white" y="-0.232544" width="17" height="19"/>
<path fill-rule="evenodd" clip-rule="evenodd" d="M12.0701 10.3692C12.9797 10.3697 13.861 10.6854 14.5638 11.2627C15.2667 11.84 15.7476 12.6432 15.9247 13.5353C16.1018 14.4275 15.9642 15.3534 15.5352 16.1554C15.1061 16.9574 14.4123 17.5859 13.5719 17.9337C12.7315 18.2816 11.7965 18.3273 10.9262 18.0631C10.0558 17.7989 9.30404 17.2411 8.79885 16.4847C8.29366 15.7284 8.06634 14.8202 8.1556 13.9151C8.24486 13.0099 8.64519 12.1637 9.28839 11.5206C9.6535 11.1551 10.0872 10.8653 10.5645 10.6677C11.0419 10.4701 11.5535 10.3687 12.0701 10.3692ZM13.6195 15.2576C13.6448 15.2564 13.6701 15.2531 13.6948 15.2476C13.7198 15.2431 13.7442 15.2354 13.7673 15.2249C13.8448 15.194 13.9115 15.1411 13.9592 15.0728C14.0081 15.0046 14.0358 14.9235 14.0388 14.8397V14.8098C14.0367 14.7143 14.0033 14.622 13.9438 14.5473C13.8842 14.4726 13.8017 14.4195 13.709 14.3962C13.6814 14.3902 13.6534 14.3864 13.6252 14.3848C13.4603 14.3848 12.5961 14.3706 12.4184 14.3606L12.2663 14.3521L12.3146 12.8895C12.3167 12.8615 12.3167 12.8335 12.3146 12.8056C12.3092 12.7785 12.3016 12.7519 12.2919 12.726C12.2817 12.6996 12.2688 12.6744 12.2535 12.6507C12.238 12.6268 12.2204 12.6045 12.2009 12.5838C12.1809 12.5643 12.1595 12.5463 12.1369 12.5298C12.114 12.5133 12.0892 12.4995 12.063 12.4886C12.0373 12.4775 12.0106 12.4685 11.9834 12.4616C11.9567 12.456 11.9296 12.4527 11.9024 12.4516H11.8882C11.8332 12.4512 11.7787 12.4613 11.7276 12.4815C11.6751 12.5024 11.627 12.5328 11.5854 12.571L11.5755 12.581C11.5583 12.5995 11.5421 12.6189 11.5271 12.6393C11.5125 12.6622 11.4992 12.6859 11.4873 12.7104C11.4653 12.7616 11.4532 12.8166 11.4518 12.8724L11.3765 14.7558C11.3743 14.7837 11.3743 14.8117 11.3765 14.8397C11.3812 14.8674 11.3888 14.8945 11.3992 14.9207C11.4083 14.9472 11.4208 14.9725 11.4362 14.996C11.4503 15.02 11.467 15.0424 11.4859 15.0628C11.5032 15.0821 11.5228 15.0993 11.5442 15.114C11.5657 15.1282 11.588 15.141 11.611 15.1524C11.6362 15.1642 11.6623 15.1737 11.6892 15.1808C11.7149 15.1866 11.7411 15.1904 11.7674 15.1922C11.901 15.1922 12.0403 15.2078 12.1824 15.2178C12.4269 15.2348 13.3622 15.2519 13.5868 15.2462L13.6195 15.2576ZM13.7176 8.93929V9.43821C13.4183 9.33855 13.1104 9.2667 12.7979 9.22357V8.93929V5.90879H8.94724C8.82397 5.90879 8.70574 5.85982 8.61857 5.77265C8.5314 5.68548 8.48243 5.56725 8.48243 5.44398V1.68855H1.92678V15.6925H7.13065V15.7053V15.7195V15.7281V15.7394V15.7508V15.7636V15.775V15.7835V15.7963V15.8048V15.8148V15.8276V15.8389V15.8475V15.8602L7.13918 15.8844V15.8972V15.9072L7.15055 15.9441V15.9555V15.9654V15.974V15.9839L7.1605 16.0095V16.018V16.0322L7.16903 16.0564V16.0664C7.18608 16.1104 7.20314 16.1545 7.22162 16.1986L7.24578 16.2554L7.26995 16.3123L7.30122 16.3819C7.32681 16.4388 7.35381 16.4942 7.38082 16.5496H1.8287C1.60908 16.549 1.3986 16.4616 1.24307 16.3066C1.10189 16.1682 1.01556 15.9834 1 15.7863V1.59615C1.00038 1.37649 1.08781 1.16592 1.24313 1.01059C1.39846 0.855264 1.60903 0.767834 1.8287 0.767458H8.94724C9.01556 0.767236 9.08307 0.782313 9.14481 0.811583C9.20655 0.840852 9.26095 0.883573 9.30402 0.936609L13.2015 4.73906C13.321 4.85558 13.4845 4.92527 13.5974 5.04809C13.6075 5.05908 13.6171 5.07059 13.6262 5.08259C13.6868 5.16294 13.7194 5.26091 13.719 5.36153V8.93929H13.7176ZM9.40921 2.38789L12.1782 4.98343H9.40921V2.38789ZM3.68083 8.60951C3.71063 8.5751 3.74723 8.54724 3.78833 8.52766C3.82942 8.50809 3.87413 8.49724 3.91963 8.4958H9.3623C9.40893 8.4959 9.45499 8.50597 9.4974 8.52534C9.53982 8.5447 9.5776 8.57292 9.60821 8.60809C9.67112 8.6807 9.70575 8.77356 9.70575 8.86963C9.70575 8.96571 9.67112 9.05857 9.60821 9.13118C9.57777 9.16629 9.54025 9.19457 9.49812 9.21417C9.45598 9.23376 9.41018 9.24423 9.36372 9.24489H3.92531C3.8787 9.2447 3.83267 9.23459 3.79027 9.21523C3.74787 9.19587 3.71007 9.1677 3.6794 9.1326C3.61573 9.0598 3.58063 8.96636 3.58063 8.86963C3.58063 8.77291 3.61573 8.67947 3.6794 8.60667L3.68083 8.60951ZM3.68083 6.14759C3.71134 6.11267 3.7489 6.08461 3.79104 6.06525C3.83318 6.0459 3.87894 6.03569 3.92531 6.03529H7.14202C7.1878 6.03552 7.23304 6.04524 7.27487 6.06384C7.31671 6.08243 7.35424 6.10949 7.38508 6.14332C7.44887 6.21636 7.48402 6.31003 7.48402 6.407C7.48402 6.50396 7.44887 6.59764 7.38508 6.67068C7.35464 6.70579 7.31713 6.73407 7.27499 6.75366C7.23286 6.77326 7.18706 6.78373 7.1406 6.78439H3.92531C3.8787 6.7842 3.83267 6.77409 3.79027 6.75472C3.74787 6.73536 3.71007 6.7072 3.6794 6.6721C3.61562 6.59906 3.58047 6.50539 3.58047 6.40842C3.58047 6.31146 3.61562 6.21778 3.6794 6.14474L3.68083 6.14759ZM7.64379 11.7125H3.92958C3.88274 11.7124 3.83646 11.7024 3.79381 11.683C3.75117 11.6636 3.71313 11.6354 3.68225 11.6002C3.61878 11.5269 3.58439 11.4328 3.58559 11.3358C3.58468 11.2395 3.61964 11.1463 3.68367 11.0743C3.71438 11.0391 3.75215 11.0108 3.79452 10.9912C3.83689 10.9717 3.8829 10.9612 3.92958 10.9606H8.18109C7.97967 11.1945 7.79984 11.4462 7.64379 11.7125ZM3.68367 13.5305C3.71438 13.4954 3.75215 13.4671 3.79452 13.4475C3.83689 13.4279 3.8829 13.4174 3.92958 13.4168H7.01693C6.97347 13.6652 6.94877 13.9166 6.94302 14.1687H3.92958C3.88274 14.1687 3.83646 14.1586 3.79381 14.1392C3.75117 14.1199 3.71313 14.0917 3.68225 14.0564C3.61899 13.9835 3.58461 13.89 3.58559 13.7935C3.58447 13.6967 3.61943 13.6029 3.68367 13.5305ZM14.3444 12.0323C13.8196 11.5084 13.1295 11.1825 12.3914 11.1101C11.6534 11.0378 10.9131 11.2235 10.2966 11.6356C9.68006 12.0477 9.22543 12.6608 9.01009 13.3704C8.79474 14.08 8.83201 14.8424 9.11552 15.5276C9.39904 16.2128 9.91129 16.7786 10.5651 17.1287C11.2188 17.4787 11.9737 17.5913 12.7012 17.4474C13.4287 17.3034 14.0837 16.9117 14.5549 16.3391C15.0261 15.7665 15.2843 15.0482 15.2854 14.3066C15.2868 13.8841 15.2043 13.4656 15.0428 13.0752C14.8813 12.6848 14.6439 12.3303 14.3444 12.0323Z"/>
</mask>
<path fill-rule="evenodd" clip-rule="evenodd" d="M12.0701 10.3692C12.9797 10.3697 13.861 10.6854 14.5638 11.2627C15.2667 11.84 15.7476 12.6432 15.9247 13.5353C16.1018 14.4275 15.9642 15.3534 15.5352 16.1554C15.1061 16.9574 14.4123 17.5859 13.5719 17.9337C12.7315 18.2816 11.7965 18.3273 10.9262 18.0631C10.0558 17.7989 9.30404 17.2411 8.79885 16.4847C8.29366 15.7284 8.06634 14.8202 8.1556 13.9151C8.24486 13.0099 8.64519 12.1637 9.28839 11.5206C9.6535 11.1551 10.0872 10.8653 10.5645 10.6677C11.0419 10.4701 11.5535 10.3687 12.0701 10.3692ZM13.6195 15.2576C13.6448 15.2564 13.6701 15.2531 13.6948 15.2476C13.7198 15.2431 13.7442 15.2354 13.7673 15.2249C13.8448 15.194 13.9115 15.1411 13.9592 15.0728C14.0081 15.0046 14.0358 14.9235 14.0388 14.8397V14.8098C14.0367 14.7143 14.0033 14.622 13.9438 14.5473C13.8842 14.4726 13.8017 14.4195 13.709 14.3962C13.6814 14.3902 13.6534 14.3864 13.6252 14.3848C13.4603 14.3848 12.5961 14.3706 12.4184 14.3606L12.2663 14.3521L12.3146 12.8895C12.3167 12.8615 12.3167 12.8335 12.3146 12.8056C12.3092 12.7785 12.3016 12.7519 12.2919 12.726C12.2817 12.6996 12.2688 12.6744 12.2535 12.6507C12.238 12.6268 12.2204 12.6045 12.2009 12.5838C12.1809 12.5643 12.1595 12.5463 12.1369 12.5298C12.114 12.5133 12.0892 12.4995 12.063 12.4886C12.0373 12.4775 12.0106 12.4685 11.9834 12.4616C11.9567 12.456 11.9296 12.4527 11.9024 12.4516H11.8882C11.8332 12.4512 11.7787 12.4613 11.7276 12.4815C11.6751 12.5024 11.627 12.5328 11.5854 12.571L11.5755 12.581C11.5583 12.5995 11.5421 12.6189 11.5271 12.6393C11.5125 12.6622 11.4992 12.6859 11.4873 12.7104C11.4653 12.7616 11.4532 12.8166 11.4518 12.8724L11.3765 14.7558C11.3743 14.7837 11.3743 14.8117 11.3765 14.8397C11.3812 14.8674 11.3888 14.8945 11.3992 14.9207C11.4083 14.9472 11.4208 14.9725 11.4362 14.996C11.4503 15.02 11.467 15.0424 11.4859 15.0628C11.5032 15.0821 11.5228 15.0993 11.5442 15.114C11.5657 15.1282 11.588 15.141 11.611 15.1524C11.6362 15.1642 11.6623 15.1737 11.6892 15.1808C11.7149 15.1866 11.7411 15.1904 11.7674 15.1922C11.901 15.1922 12.0403 15.2078 12.1824 15.2178C12.4269 15.2348 13.3622 15.2519 13.5868 15.2462L13.6195 15.2576ZM13.7176 8.93929V9.43821C13.4183 9.33855 13.1104 9.2667 12.7979 9.22357V8.93929V5.90879H8.94724C8.82397 5.90879 8.70574 5.85982 8.61857 5.77265C8.5314 5.68548 8.48243 5.56725 8.48243 5.44398V1.68855H1.92678V15.6925H7.13065V15.7053V15.7195V15.7281V15.7394V15.7508V15.7636V15.775V15.7835V15.7963V15.8048V15.8148V15.8276V15.8389V15.8475V15.8602L7.13918 15.8844V15.8972V15.9072L7.15055 15.9441V15.9555V15.9654V15.974V15.9839L7.1605 16.0095V16.018V16.0322L7.16903 16.0564V16.0664C7.18608 16.1104 7.20314 16.1545 7.22162 16.1986L7.24578 16.2554L7.26995 16.3123L7.30122 16.3819C7.32681 16.4388 7.35381 16.4942 7.38082 16.5496H1.8287C1.60908 16.549 1.3986 16.4616 1.24307 16.3066C1.10189 16.1682 1.01556 15.9834 1 15.7863V1.59615C1.00038 1.37649 1.08781 1.16592 1.24313 1.01059C1.39846 0.855264 1.60903 0.767834 1.8287 0.767458H8.94724C9.01556 0.767236 9.08307 0.782313 9.14481 0.811583C9.20655 0.840852 9.26095 0.883573 9.30402 0.936609L13.2015 4.73906C13.321 4.85558 13.4845 4.92527 13.5974 5.04809C13.6075 5.05908 13.6171 5.07059 13.6262 5.08259C13.6868 5.16294 13.7194 5.26091 13.719 5.36153V8.93929H13.7176ZM9.40921 2.38789L12.1782 4.98343H9.40921V2.38789ZM3.68083 8.60951C3.71063 8.5751 3.74723 8.54724 3.78833 8.52766C3.82942 8.50809 3.87413 8.49724 3.91963 8.4958H9.3623C9.40893 8.4959 9.45499 8.50597 9.4974 8.52534C9.53982 8.5447 9.5776 8.57292 9.60821 8.60809C9.67112 8.6807 9.70575 8.77356 9.70575 8.86963C9.70575 8.96571 9.67112 9.05857 9.60821 9.13118C9.57777 9.16629 9.54025 9.19457 9.49812 9.21417C9.45598 9.23376 9.41018 9.24423 9.36372 9.24489H3.92531C3.8787 9.2447 3.83267 9.23459 3.79027 9.21523C3.74787 9.19587 3.71007 9.1677 3.6794 9.1326C3.61573 9.0598 3.58063 8.96636 3.58063 8.86963C3.58063 8.77291 3.61573 8.67947 3.6794 8.60667L3.68083 8.60951ZM3.68083 6.14759C3.71134 6.11267 3.7489 6.08461 3.79104 6.06525C3.83318 6.0459 3.87894 6.03569 3.92531 6.03529H7.14202C7.1878 6.03552 7.23304 6.04524 7.27487 6.06384C7.31671 6.08243 7.35424 6.10949 7.38508 6.14332C7.44887 6.21636 7.48402 6.31003 7.48402 6.407C7.48402 6.50396 7.44887 6.59764 7.38508 6.67068C7.35464 6.70579 7.31713 6.73407 7.27499 6.75366C7.23286 6.77326 7.18706 6.78373 7.1406 6.78439H3.92531C3.8787 6.7842 3.83267 6.77409 3.79027 6.75472C3.74787 6.73536 3.71007 6.7072 3.6794 6.6721C3.61562 6.59906 3.58047 6.50539 3.58047 6.40842C3.58047 6.31146 3.61562 6.21778 3.6794 6.14474L3.68083 6.14759ZM7.64379 11.7125H3.92958C3.88274 11.7124 3.83646 11.7024 3.79381 11.683C3.75117 11.6636 3.71313 11.6354 3.68225 11.6002C3.61878 11.5269 3.58439 11.4328 3.58559 11.3358C3.58468 11.2395 3.61964 11.1463 3.68367 11.0743C3.71438 11.0391 3.75215 11.0108 3.79452 10.9912C3.83689 10.9717 3.8829 10.9612 3.92958 10.9606H8.18109C7.97967 11.1945 7.79984 11.4462 7.64379 11.7125ZM3.68367 13.5305C3.71438 13.4954 3.75215 13.4671 3.79452 13.4475C3.83689 13.4279 3.8829 13.4174 3.92958 13.4168H7.01693C6.97347 13.6652 6.94877 13.9166 6.94302 14.1687H3.92958C3.88274 14.1687 3.83646 14.1586 3.79381 14.1392C3.75117 14.1199 3.71313 14.0917 3.68225 14.0564C3.61899 13.9835 3.58461 13.89 3.58559 13.7935C3.58447 13.6967 3.61943 13.6029 3.68367 13.5305ZM14.3444 12.0323C13.8196 11.5084 13.1295 11.1825 12.3914 11.1101C11.6534 11.0378 10.9131 11.2235 10.2966 11.6356C9.68006 12.0477 9.22543 12.6608 9.01009 13.3704C8.79474 14.08 8.83201 14.8424 9.11552 15.5276C9.39904 16.2128 9.91129 16.7786 10.5651 17.1287C11.2188 17.4787 11.9737 17.5913 12.7012 17.4474C13.4287 17.3034 14.0837 16.9117 14.5549 16.3391C15.0261 15.7665 15.2843 15.0482 15.2854 14.3066C15.2868 13.8841 15.2043 13.4656 15.0428 13.0752C14.8813 12.6848 14.6439 12.3303 14.3444 12.0323Z" fill="#4A4A4A"/>
<path fill-rule="evenodd" clip-rule="evenodd" d="M12.0701 10.3692C12.9797 10.3697 13.861 10.6854 14.5638 11.2627C15.2667 11.84 15.7476 12.6432 15.9247 13.5353C16.1018 14.4275 15.9642 15.3534 15.5352 16.1554C15.1061 16.9574 14.4123 17.5859 13.5719 17.9337C12.7315 18.2816 11.7965 18.3273 10.9262 18.0631C10.0558 17.7989 9.30404 17.2411 8.79885 16.4847C8.29366 15.7284 8.06634 14.8202 8.1556 13.9151C8.24486 13.0099 8.64519 12.1637 9.28839 11.5206C9.6535 11.1551 10.0872 10.8653 10.5645 10.6677C11.0419 10.4701 11.5535 10.3687 12.0701 10.3692ZM13.6195 15.2576C13.6448 15.2564 13.6701 15.2531 13.6948 15.2476C13.7198 15.2431 13.7442 15.2354 13.7673 15.2249C13.8448 15.194 13.9115 15.1411 13.9592 15.0728C14.0081 15.0046 14.0358 14.9235 14.0388 14.8397V14.8098C14.0367 14.7143 14.0033 14.622 13.9438 14.5473C13.8842 14.4726 13.8017 14.4195 13.709 14.3962C13.6814 14.3902 13.6534 14.3864 13.6252 14.3848C13.4603 14.3848 12.5961 14.3706 12.4184 14.3606L12.2663 14.3521L12.3146 12.8895C12.3167 12.8615 12.3167 12.8335 12.3146 12.8056C12.3092 12.7785 12.3016 12.7519 12.2919 12.726C12.2817 12.6996 12.2688 12.6744 12.2535 12.6507C12.238 12.6268 12.2204 12.6045 12.2009 12.5838C12.1809 12.5643 12.1595 12.5463 12.1369 12.5298C12.114 12.5133 12.0892 12.4995 12.063 12.4886C12.0373 12.4775 12.0106 12.4685 11.9834 12.4616C11.9567 12.456 11.9296 12.4527 11.9024 12.4516H11.8882C11.8332 12.4512 11.7787 12.4613 11.7276 12.4815C11.6751 12.5024 11.627 12.5328 11.5854 12.571L11.5755 12.581C11.5583 12.5995 11.5421 12.6189 11.5271 12.6393C11.5125 12.6622 11.4992 12.6859 11.4873 12.7104C11.4653 12.7616 11.4532 12.8166 11.4518 12.8724L11.3765 14.7558C11.3743 14.7837 11.3743 14.8117 11.3765 14.8397C11.3812 14.8674 11.3888 14.8945 11.3992 14.9207C11.4083 14.9472 11.4208 14.9725 11.4362 14.996C11.4503 15.02 11.467 15.0424 11.4859 15.0628C11.5032 15.0821 11.5228 15.0993 11.5442 15.114C11.5657 15.1282 11.588 15.141 11.611 15.1524C11.6362 15.1642 11.6623 15.1737 11.6892 15.1808C11.7149 15.1866 11.7411 15.1904 11.7674 15.1922C11.901 15.1922 12.0403 15.2078 12.1824 15.2178C12.4269 15.2348 13.3622 15.2519 13.5868 15.2462L13.6195 15.2576ZM13.7176 8.93929V9.43821C13.4183 9.33855 13.1104 9.2667 12.7979 9.22357V8.93929V5.90879H8.94724C8.82397 5.90879 8.70574 5.85982 8.61857 5.77265C8.5314 5.68548 8.48243 5.56725 8.48243 5.44398V1.68855H1.92678V15.6925H7.13065V15.7053V15.7195V15.7281V15.7394V15.7508V15.7636V15.775V15.7835V15.7963V15.8048V15.8148V15.8276V15.8389V15.8475V15.8602L7.13918 15.8844V15.8972V15.9072L7.15055 15.9441V15.9555V15.9654V15.974V15.9839L7.1605 16.0095V16.018V16.0322L7.16903 16.0564V16.0664C7.18608 16.1104 7.20314 16.1545 7.22162 16.1986L7.24578 16.2554L7.26995 16.3123L7.30122 16.3819C7.32681 16.4388 7.35381 16.4942 7.38082 16.5496H1.8287C1.60908 16.549 1.3986 16.4616 1.24307 16.3066C1.10189 16.1682 1.01556 15.9834 1 15.7863V1.59615C1.00038 1.37649 1.08781 1.16592 1.24313 1.01059C1.39846 0.855264 1.60903 0.767834 1.8287 0.767458H8.94724C9.01556 0.767236 9.08307 0.782313 9.14481 0.811583C9.20655 0.840852 9.26095 0.883573 9.30402 0.936609L13.2015 4.73906C13.321 4.85558 13.4845 4.92527 13.5974 5.04809C13.6075 5.05908 13.6171 5.07059 13.6262 5.08259C13.6868 5.16294 13.7194 5.26091 13.719 5.36153V8.93929H13.7176ZM9.40921 2.38789L12.1782 4.98343H9.40921V2.38789ZM3.68083 8.60951C3.71063 8.5751 3.74723 8.54724 3.78833 8.52766C3.82942 8.50809 3.87413 8.49724 3.91963 8.4958H9.3623C9.40893 8.4959 9.45499 8.50597 9.4974 8.52534C9.53982 8.5447 9.5776 8.57292 9.60821 8.60809C9.67112 8.6807 9.70575 8.77356 9.70575 8.86963C9.70575 8.96571 9.67112 9.05857 9.60821 9.13118C9.57777 9.16629 9.54025 9.19457 9.49812 9.21417C9.45598 9.23376 9.41018 9.24423 9.36372 9.24489H3.92531C3.8787 9.2447 3.83267 9.23459 3.79027 9.21523C3.74787 9.19587 3.71007 9.1677 3.6794 9.1326C3.61573 9.0598 3.58063 8.96636 3.58063 8.86963C3.58063 8.77291 3.61573 8.67947 3.6794 8.60667L3.68083 8.60951ZM3.68083 6.14759C3.71134 6.11267 3.7489 6.08461 3.79104 6.06525C3.83318 6.0459 3.87894 6.03569 3.92531 6.03529H7.14202C7.1878 6.03552 7.23304 6.04524 7.27487 6.06384C7.31671 6.08243 7.35424 6.10949 7.38508 6.14332C7.44887 6.21636 7.48402 6.31003 7.48402 6.407C7.48402 6.50396 7.44887 6.59764 7.38508 6.67068C7.35464 6.70579 7.31713 6.73407 7.27499 6.75366C7.23286 6.77326 7.18706 6.78373 7.1406 6.78439H3.92531C3.8787 6.7842 3.83267 6.77409 3.79027 6.75472C3.74787 6.73536 3.71007 6.7072 3.6794 6.6721C3.61562 6.59906 3.58047 6.50539 3.58047 6.40842C3.58047 6.31146 3.61562 6.21778 3.6794 6.14474L3.68083 6.14759ZM7.64379 11.7125H3.92958C3.88274 11.7124 3.83646 11.7024 3.79381 11.683C3.75117 11.6636 3.71313 11.6354 3.68225 11.6002C3.61878 11.5269 3.58439 11.4328 3.58559 11.3358C3.58468 11.2395 3.61964 11.1463 3.68367 11.0743C3.71438 11.0391 3.75215 11.0108 3.79452 10.9912C3.83689 10.9717 3.8829 10.9612 3.92958 10.9606H8.18109C7.97967 11.1945 7.79984 11.4462 7.64379 11.7125ZM3.68367 13.5305C3.71438 13.4954 3.75215 13.4671 3.79452 13.4475C3.83689 13.4279 3.8829 13.4174 3.92958 13.4168H7.01693C6.97347 13.6652 6.94877 13.9166 6.94302 14.1687H3.92958C3.88274 14.1687 3.83646 14.1586 3.79381 14.1392C3.75117 14.1199 3.71313 14.0917 3.68225 14.0564C3.61899 13.9835 3.58461 13.89 3.58559 13.7935C3.58447 13.6967 3.61943 13.6029 3.68367 13.5305ZM14.3444 12.0323C13.8196 11.5084 13.1295 11.1825 12.3914 11.1101C11.6534 11.0378 10.9131 11.2235 10.2966 11.6356C9.68006 12.0477 9.22543 12.6608 9.01009 13.3704C8.79474 14.08 8.83201 14.8424 9.11552 15.5276C9.39904 16.2128 9.91129 16.7786 10.5651 17.1287C11.2188 17.4787 11.9737 17.5913 12.7012 17.4474C13.4287 17.3034 14.0837 16.9117 14.5549 16.3391C15.0261 15.7665 15.2843 15.0482 15.2854 14.3066C15.2868 13.8841 15.2043 13.4656 15.0428 13.0752C14.8813 12.6848 14.6439 12.3303 14.3444 12.0323Z" stroke="#4A4A4A" stroke-width="0.4" mask="url(#path-1-outside-1_5979_2324)"/>
</svg>
